<svg width="25" height="24" viewBox="0 0 25 24" fill="none" xmlns="http://www.w3.org/2000/svg">
<path fill-rule="evenodd" clip-rule="evenodd" d="M7.63636 4.8C5.82889 4.8 4.36364 6.41178 4.36364 8.4C4.36364 10.3882 5.82889 12 7.63636 12C9.44384 12 10.9091 10.3882 10.9091 8.4C10.9091 6.41178 9.44384 4.8 7.63636 4.8Z" fill="#55537E"/>
<path fill-rule="evenodd" clip-rule="evenodd" d="M17.7178 4.94332e-07H6.28222C5.40408 -1.43494e-05 4.67931 -2.65986e-05 4.08892 0.0530339C3.47572 0.108144 2.91205 0.226421 2.38259 0.52317C1.56152 0.983362 0.893966 1.71767 0.475609 2.62085C0.205838 3.20325 0.0983128 3.82329 0.0482126 4.49781C-2.41724e-05 5.14724 -1.30418e-05 5.94447 4.4923e-07 6.91042V17.0896C-1.30418e-05 18.0555 -2.41724e-05 18.8528 0.0482126 19.5022C0.0983128 20.1767 0.205837 20.7968 0.475609 21.3792C0.893966 22.2823 1.56152 23.0166 2.38259 23.4768C2.91205 23.7736 3.47572 23.8919 4.08892 23.947C4.2184 23.9586 4.35434 23.9677 4.49695 23.9748C4.50519 23.9756 4.51315 23.9764 4.52082 23.9772C4.75424 23.9999 5.04416 23.9999 5.33911 23.9998L5.89146 23.9998C6.01819 24 6.14841 24 6.28219 24H17.7178C17.8506 24 17.9798 24 18.1056 23.9998H18.661C18.956 23.9999 19.2459 23.9999 19.4793 23.9772C19.487 23.9764 19.495 23.9756 19.5033 23.9748C19.6458 23.9677 19.7817 23.9586 19.9111 23.947C20.5243 23.8919 21.088 23.7736 21.6174 23.4768C22.4385 23.0166 23.106 22.2823 23.5244 21.3792C23.7942 20.7968 23.9017 20.1767 23.9518 19.5022C24 18.8528 24 18.0555 24 17.0896V15.601V15.5986V6.91041C24 5.94446 24 5.14724 23.9518 4.49781C23.9017 3.82329 23.7942 3.20325 23.5244 2.62085C23.106 1.71767 22.4385 0.983362 21.6174 0.52317C21.088 0.226421 20.5243 0.108144 19.9111 0.0530339C19.3207 -2.65986e-05 18.5959 -1.43494e-05 17.7178 4.94332e-07ZM21.8182 12.7028V6.96C21.8182 5.93211 21.8173 5.23335 21.7772 4.69325C21.7381 4.16715 21.6673 3.8981 21.5804 3.71042C21.3712 3.25884 21.0374 2.89168 20.6269 2.66159C20.4563 2.56596 20.2117 2.48805 19.7334 2.44506C19.2424 2.40093 18.6072 2.4 17.6727 2.4H6.32727C5.39282 2.4 4.75759 2.40093 4.26659 2.44506C3.78832 2.48805 3.54373 2.56596 3.37311 2.66159C2.96258 2.89168 2.6288 3.25884 2.41962 3.71042C2.33269 3.8981 2.26186 4.16715 2.22278 4.69325C2.18267 5.23335 2.18182 5.93211 2.18182 6.96V17.04C2.18182 18.0679 2.18267 18.7666 2.22278 19.3068C2.26186 19.8329 2.33269 20.1019 2.41962 20.2896C2.60317 20.6858 2.88265 21.0171 3.22574 21.2478C3.28932 21.1421 3.35198 21.0576 3.39845 20.9966C3.54887 20.7989 3.75389 20.5735 3.96247 20.3441L10.0191 13.6819C10.2137 13.4677 10.4033 13.2591 10.577 13.0969C10.7677 12.9188 11.0098 12.7273 11.3258 12.6143C11.764 12.4577 12.2361 12.4577 12.6743 12.6143C12.9903 12.7273 13.2324 12.9188 13.4231 13.0969C13.5968 13.2591 13.7864 13.4677 13.9811 13.6819L14.1818 13.9027L16.5645 11.2819C16.7591 11.0677 16.9487 10.8591 17.1224 10.6969C17.3131 10.5188 17.5552 10.3273 17.8712 10.2143C18.3094 10.0577 18.7815 10.0577 19.2197 10.2143C19.5357 10.3273 19.7778 10.5188 19.9685 10.6969C20.1422 10.8591 20.3318 11.0677 20.5265 11.2819L21.8182 12.7028Z" fill="#55537E"/>
</svg>
